G04 #@! TF.GenerationSoftware,KiCad,Pcbnew,7.0.1*
G04 #@! TF.CreationDate,2023-05-26T07:14:45+02:00*
G04 #@! TF.ProjectId,K_Aries,4b5f4172-6965-4732-9e6b-696361645f70,rev?*
G04 #@! TF.SameCoordinates,Original*
G04 #@! TF.FileFunction,Soldermask,Top*
G04 #@! TF.FilePolarity,Negative*
%FSLAX46Y46*%
G04 Gerber Fmt 4.6, Leading zero omitted, Abs format (unit mm)*
G04 Created by KiCad (PCBNEW 7.0.1) date 2023-05-26 07:14:45*
%MOMM*%
%LPD*%
G01*
G04 APERTURE LIST*
G04 Aperture macros list*
%AMRoundRect*
0 Rectangle with rounded corners*
0 $1 Rounding radius*
0 $2 $3 $4 $5 $6 $7 $8 $9 X,Y pos of 4 corners*
0 Add a 4 corners polygon primitive as box body*
4,1,4,$2,$3,$4,$5,$6,$7,$8,$9,$2,$3,0*
0 Add four circle primitives for the rounded corners*
1,1,$1+$1,$2,$3*
1,1,$1+$1,$4,$5*
1,1,$1+$1,$6,$7*
1,1,$1+$1,$8,$9*
0 Add four rect primitives between the rounded corners*
20,1,$1+$1,$2,$3,$4,$5,0*
20,1,$1+$1,$4,$5,$6,$7,0*
20,1,$1+$1,$6,$7,$8,$9,0*
20,1,$1+$1,$8,$9,$2,$3,0*%
G04 Aperture macros list end*
%ADD10C,1.803400*%
%ADD11RoundRect,0.250000X-0.475000X0.337500X-0.475000X-0.337500X0.475000X-0.337500X0.475000X0.337500X0*%
%ADD12O,4.000000X3.000000*%
%ADD13R,1.371600X1.371600*%
%ADD14C,1.371600*%
%ADD15C,1.524000*%
%ADD16RoundRect,0.250001X-0.624999X0.462499X-0.624999X-0.462499X0.624999X-0.462499X0.624999X0.462499X0*%
%ADD17RoundRect,0.250000X-0.450000X0.350000X-0.450000X-0.350000X0.450000X-0.350000X0.450000X0.350000X0*%
%ADD18C,1.998980*%
%ADD19C,2.499360*%
%ADD20RoundRect,0.250001X0.624999X-0.462499X0.624999X0.462499X-0.624999X0.462499X-0.624999X-0.462499X0*%
%ADD21C,3.000000*%
%ADD22RoundRect,0.250000X0.620000X0.845000X-0.620000X0.845000X-0.620000X-0.845000X0.620000X-0.845000X0*%
%ADD23O,1.740000X2.190000*%
%ADD24RoundRect,0.250000X0.475000X-0.337500X0.475000X0.337500X-0.475000X0.337500X-0.475000X-0.337500X0*%
%ADD25R,1.950000X1.950000*%
%ADD26C,3.600000*%
%ADD27RoundRect,0.250000X-0.250000X0.250000X-0.250000X-0.250000X0.250000X-0.250000X0.250000X0.250000X0*%
%ADD28C,1.950000*%
%ADD29C,7.400000*%
%ADD30RoundRect,0.250000X1.330000X1.800000X-1.330000X1.800000X-1.330000X-1.800000X1.330000X-1.800000X0*%
%ADD31O,3.160000X4.100000*%
%ADD32RoundRect,0.250000X-0.845000X0.620000X-0.845000X-0.620000X0.845000X-0.620000X0.845000X0.620000X0*%
%ADD33O,2.190000X1.740000*%
%ADD34RoundRect,0.250000X0.350000X0.450000X-0.350000X0.450000X-0.350000X-0.450000X0.350000X-0.450000X0*%
%ADD35C,1.700000*%
%ADD36O,1.700000X3.000000*%
%ADD37R,1.700000X1.700000*%
%ADD38O,1.700000X1.700000*%
%ADD39RoundRect,0.250000X-0.620000X-0.845000X0.620000X-0.845000X0.620000X0.845000X-0.620000X0.845000X0*%
%ADD40RoundRect,0.250000X0.845000X-0.620000X0.845000X0.620000X-0.845000X0.620000X-0.845000X-0.620000X0*%
%ADD41RoundRect,0.250001X0.462499X0.624999X-0.462499X0.624999X-0.462499X-0.624999X0.462499X-0.624999X0*%
%ADD42RoundRect,0.250000X-0.600000X0.600000X-0.600000X-0.600000X0.600000X-0.600000X0.600000X0.600000X0*%
G04 APERTURE END LIST*
D10*
X225750000Y-201199996D03*
X225750000Y-186199996D03*
X225750000Y-181199995D03*
X225750000Y-176199995D03*
X218250000Y-176199995D03*
X218250000Y-181199995D03*
X218250000Y-186199996D03*
X218250000Y-201199996D03*
D11*
X193500000Y-204962500D03*
X193500000Y-207037500D03*
D12*
X111700000Y-83300000D03*
X137200000Y-77300000D03*
X142200000Y-80300000D03*
X108700000Y-88800000D03*
X139200000Y-88800000D03*
X111700000Y-77300000D03*
X137200000Y-83800000D03*
X108700000Y-72300000D03*
X139200000Y-72300000D03*
D13*
X273248400Y-170436750D03*
D14*
X273248400Y-164536750D03*
D15*
X273238400Y-161746750D03*
X273248400Y-159266750D03*
D11*
X177000000Y-204962500D03*
X177000000Y-207037500D03*
D13*
X176400000Y-170336750D03*
D14*
X176400000Y-164436750D03*
D15*
X176390000Y-161646750D03*
X176400000Y-159166750D03*
D16*
X291500000Y-99512500D03*
X291500000Y-102487500D03*
D17*
X232000000Y-148000000D03*
X232000000Y-150000000D03*
D18*
X320460000Y-82540000D03*
D19*
X323000000Y-85080000D03*
X323000000Y-80000000D03*
X317920000Y-85080000D03*
X317920000Y-80000000D03*
D20*
X157500000Y-207987500D03*
X157500000Y-205012500D03*
D10*
X161000000Y-201199996D03*
X161000000Y-186199996D03*
X161000000Y-181199995D03*
X161000000Y-176199995D03*
X153500000Y-176199995D03*
X153500000Y-181199995D03*
X153500000Y-186199996D03*
X153500000Y-201199996D03*
D21*
X257000000Y-113475000D03*
X268000000Y-102475000D03*
D11*
X250500000Y-205000000D03*
X250500000Y-207075000D03*
D22*
X114670000Y-198080000D03*
D23*
X112130000Y-198080000D03*
D24*
X282000000Y-182037500D03*
X282000000Y-179962500D03*
X281000000Y-149537500D03*
X281000000Y-147462500D03*
D10*
X193500000Y-201000000D03*
X193500000Y-186000000D03*
X193500000Y-180999999D03*
X193500000Y-175999999D03*
X186000000Y-175999999D03*
X186000000Y-180999999D03*
X186000000Y-186000000D03*
X186000000Y-201000000D03*
X258000000Y-201000001D03*
X258000000Y-186000001D03*
X258000000Y-181000000D03*
X258000000Y-176000000D03*
X250500000Y-176000000D03*
X250500000Y-181000000D03*
X250500000Y-186000001D03*
X250500000Y-201000001D03*
D20*
X246000000Y-150987500D03*
X246000000Y-148012500D03*
X189500000Y-150987500D03*
X189500000Y-148012500D03*
D11*
X234500000Y-204962500D03*
X234500000Y-207037500D03*
X160000000Y-204962500D03*
X160000000Y-207037500D03*
D13*
X198600000Y-164800000D03*
D14*
X204500000Y-164800000D03*
D15*
X207290000Y-164790000D03*
X209770000Y-164800000D03*
D11*
X282000000Y-133000000D03*
X282000000Y-135075000D03*
D17*
X220500000Y-205012500D03*
X220500000Y-207012500D03*
X188500000Y-205000000D03*
X188500000Y-207000000D03*
X257000000Y-148500000D03*
X257000000Y-150500000D03*
D13*
X157300000Y-170350000D03*
D14*
X157300000Y-164450000D03*
D15*
X157290000Y-161660000D03*
X157300000Y-159180000D03*
D25*
X316560000Y-206560000D03*
D26*
X313120000Y-203120000D03*
X313120000Y-210000000D03*
X320000000Y-203120000D03*
X320000000Y-210000000D03*
D11*
X237000000Y-147962500D03*
X237000000Y-150037500D03*
D21*
X165825000Y-88475000D03*
X176825000Y-77475000D03*
D20*
X184250000Y-150987500D03*
X184250000Y-148012500D03*
D10*
X281000000Y-193750000D03*
X296000000Y-193750000D03*
X301000001Y-193750000D03*
X306000001Y-193750000D03*
X306000001Y-186250000D03*
X301000001Y-186250000D03*
X296000000Y-186250000D03*
X281000000Y-186250000D03*
D25*
X113440000Y-63440000D03*
D26*
X110000000Y-60000000D03*
X110000000Y-66880000D03*
X116880000Y-60000000D03*
X116880000Y-66880000D03*
D11*
X261980000Y-148462500D03*
X261980000Y-150537500D03*
D24*
X292500000Y-86500000D03*
X292500000Y-84425000D03*
D20*
X234500000Y-150987500D03*
X234500000Y-148012500D03*
D10*
X280800004Y-161250000D03*
X295800004Y-161250000D03*
X300800005Y-161250000D03*
X305800005Y-161250000D03*
X305800005Y-153750000D03*
X300800005Y-153750000D03*
X295800004Y-153750000D03*
X280800004Y-153750000D03*
D11*
X281000000Y-197925000D03*
X281000000Y-200000000D03*
X202600000Y-205000000D03*
X202600000Y-207075000D03*
D20*
X191000000Y-207987500D03*
X191000000Y-205012500D03*
D11*
X186500000Y-204962500D03*
X186500000Y-207037500D03*
D10*
X273750000Y-201199996D03*
X273750000Y-186199996D03*
X273750000Y-181199995D03*
X273750000Y-176199995D03*
X266250000Y-176199995D03*
X266250000Y-181199995D03*
X266250000Y-186199996D03*
X266250000Y-201199996D03*
D20*
X280500000Y-168487500D03*
X280500000Y-165512500D03*
D13*
X163700000Y-170336750D03*
D14*
X163700000Y-164436750D03*
D15*
X163690000Y-161646750D03*
X163700000Y-159166750D03*
D13*
X170000000Y-170336750D03*
D14*
X170000000Y-164436750D03*
D15*
X169990000Y-161646750D03*
X170000000Y-159166750D03*
D22*
X109740000Y-150200000D03*
D23*
X107200000Y-150200000D03*
D11*
X266500000Y-204962500D03*
X266500000Y-207037500D03*
D13*
X217000000Y-171250000D03*
D14*
X222900000Y-171250000D03*
D15*
X225690000Y-171240000D03*
X228170000Y-171250000D03*
D27*
X108300000Y-154450000D03*
X108300000Y-156950000D03*
D11*
X248500000Y-147962500D03*
X248500000Y-150037500D03*
D25*
X110250000Y-137750000D03*
D28*
X110250000Y-142830000D03*
D11*
X161500000Y-147962500D03*
X161500000Y-150037500D03*
D13*
X182700000Y-170450000D03*
D14*
X182700000Y-164550000D03*
D15*
X182690000Y-161760000D03*
X182700000Y-159280000D03*
D25*
X317000000Y-141560000D03*
D26*
X313560000Y-138120000D03*
X313560000Y-145000000D03*
X320440000Y-138120000D03*
X320440000Y-145000000D03*
D13*
X257248400Y-170370000D03*
D14*
X257248400Y-164470000D03*
D15*
X257238400Y-161680000D03*
X257248400Y-159200000D03*
D11*
X179750000Y-147962500D03*
X179750000Y-150037500D03*
D20*
X173500000Y-150987500D03*
X173500000Y-148012500D03*
D21*
X273500000Y-88500000D03*
X284500000Y-77500000D03*
D17*
X181750000Y-148000000D03*
X181750000Y-150000000D03*
X268500000Y-205012500D03*
X268500000Y-207012500D03*
X156500000Y-148000000D03*
X156500000Y-150000000D03*
D29*
X111000000Y-96000000D03*
D30*
X142960000Y-64595000D03*
D31*
X139000000Y-64595000D03*
X135040000Y-64595000D03*
D20*
X278500000Y-200987500D03*
X278500000Y-198012500D03*
D32*
X108000000Y-127000000D03*
D33*
X108000000Y-129540000D03*
X108000000Y-132080000D03*
D13*
X198600000Y-171000000D03*
D14*
X204500000Y-171000000D03*
D15*
X207290000Y-170990000D03*
X209770000Y-171000000D03*
D11*
X273500000Y-204962500D03*
X273500000Y-207037500D03*
D13*
X189000000Y-170450000D03*
D14*
X189000000Y-164550000D03*
D15*
X188990000Y-161760000D03*
X189000000Y-159280000D03*
D25*
X316440000Y-173440000D03*
D26*
X313000000Y-170000000D03*
X313000000Y-176880000D03*
X319880000Y-170000000D03*
X319880000Y-176880000D03*
D34*
X280000000Y-182000000D03*
X278000000Y-182000000D03*
D25*
X317000000Y-108440000D03*
D26*
X313560000Y-105000000D03*
X313560000Y-111880000D03*
X320440000Y-105000000D03*
X320440000Y-111880000D03*
D10*
X195800004Y-158750000D03*
X210800004Y-158750000D03*
X215800005Y-158750000D03*
X220800005Y-158750000D03*
X220800005Y-151250000D03*
X215800005Y-151250000D03*
X210800004Y-151250000D03*
X195800004Y-151250000D03*
D11*
X230000000Y-147962500D03*
X230000000Y-150037500D03*
D17*
X121300000Y-154700000D03*
X121300000Y-156700000D03*
D21*
X155000000Y-111975000D03*
X166000000Y-100975000D03*
D11*
X255000000Y-148462500D03*
X255000000Y-150537500D03*
X169000000Y-147962500D03*
X169000000Y-150037500D03*
D24*
X187000000Y-150037500D03*
X187000000Y-147962500D03*
D11*
X154500000Y-147962500D03*
X154500000Y-150037500D03*
X294000000Y-99462500D03*
X294000000Y-101537500D03*
D17*
X236500000Y-205037500D03*
X236500000Y-207037500D03*
D20*
X159000000Y-150987500D03*
X159000000Y-148012500D03*
D13*
X250000000Y-170370000D03*
D14*
X250000000Y-164470000D03*
D15*
X249990000Y-161680000D03*
X250000000Y-159200000D03*
D10*
X241750000Y-201199996D03*
X241750000Y-186199996D03*
X241750000Y-181199995D03*
X241750000Y-176199995D03*
X234250000Y-176199995D03*
X234250000Y-181199995D03*
X234250000Y-186199996D03*
X234250000Y-201199996D03*
D20*
X174500000Y-207987500D03*
X174500000Y-205012500D03*
D13*
X234400000Y-170436750D03*
D14*
X234400000Y-164536750D03*
D15*
X234390000Y-161746750D03*
X234400000Y-159266750D03*
D10*
X192000000Y-144399992D03*
X192000000Y-129399992D03*
X192000000Y-124399991D03*
X192000000Y-119399991D03*
X184500000Y-119399991D03*
X184500000Y-124399991D03*
X184500000Y-129399992D03*
X184500000Y-144399992D03*
D17*
X252500000Y-205000000D03*
X252500000Y-207000000D03*
D11*
X209400000Y-205000000D03*
X209400000Y-207075000D03*
X283000000Y-165500000D03*
X283000000Y-167575000D03*
D17*
X192000000Y-153500000D03*
X192000000Y-155500000D03*
D34*
X279000000Y-149500000D03*
X277000000Y-149500000D03*
D10*
X209750000Y-201199996D03*
X209750000Y-186199996D03*
X209750000Y-181199995D03*
X209750000Y-176199995D03*
X202250000Y-176199995D03*
X202250000Y-181199995D03*
X202250000Y-186199996D03*
X202250000Y-201199996D03*
D11*
X241500000Y-147962500D03*
X241500000Y-150037500D03*
D17*
X204600000Y-205037500D03*
X204600000Y-207037500D03*
D10*
X206250000Y-144199996D03*
X206250000Y-129199996D03*
X206250000Y-124199995D03*
X206250000Y-119199995D03*
X198750000Y-119199995D03*
X198750000Y-124199995D03*
X198750000Y-129199996D03*
X198750000Y-144199996D03*
D13*
X266000000Y-170436750D03*
D14*
X266000000Y-164536750D03*
D15*
X265990000Y-161746750D03*
X266000000Y-159266750D03*
D29*
X319000000Y-96000000D03*
D34*
X279500000Y-117000000D03*
X277500000Y-117000000D03*
D20*
X239000000Y-208025000D03*
X239000000Y-205050000D03*
D17*
X155000000Y-205000000D03*
X155000000Y-207000000D03*
D25*
X318440000Y-65000000D03*
D26*
X315000000Y-61560000D03*
X315000000Y-68440000D03*
X321880000Y-61560000D03*
X321880000Y-68440000D03*
D20*
X223000000Y-208000000D03*
X223000000Y-205025000D03*
D29*
X111000000Y-209000000D03*
D10*
X248250000Y-144199996D03*
X248250000Y-129199996D03*
X248250000Y-124199995D03*
X248250000Y-119199995D03*
X240750000Y-119199995D03*
X240750000Y-124199995D03*
X240750000Y-129199996D03*
X240750000Y-144199996D03*
X280999999Y-128750000D03*
X295999999Y-128750000D03*
X301000000Y-128750000D03*
X306000000Y-128750000D03*
X306000000Y-121250000D03*
X301000000Y-121250000D03*
X295999999Y-121250000D03*
X280999999Y-121250000D03*
D15*
X292380000Y-96810000D03*
X300000000Y-96810000D03*
X305080000Y-96810000D03*
X310160000Y-96810000D03*
X310160000Y-89190000D03*
X305080000Y-89190000D03*
X300000000Y-89190000D03*
X292380000Y-89190000D03*
D20*
X255000000Y-207987500D03*
X255000000Y-205012500D03*
D11*
X170000000Y-204962500D03*
X170000000Y-207037500D03*
D20*
X259500000Y-151487500D03*
X259500000Y-148512500D03*
D11*
X176000000Y-147962500D03*
X176000000Y-150037500D03*
D29*
X296000000Y-209000000D03*
D20*
X227000000Y-151000000D03*
X227000000Y-148025000D03*
D10*
X234250000Y-144199996D03*
X234250000Y-129199996D03*
X234250000Y-124199995D03*
X234250000Y-119199995D03*
X226750000Y-119199995D03*
X226750000Y-124199995D03*
X226750000Y-129199996D03*
X226750000Y-144199996D03*
D35*
X143900000Y-160100000D03*
D36*
X143900000Y-159465000D03*
D37*
X143900000Y-158830000D03*
D38*
X141360000Y-160100000D03*
D36*
X141360000Y-159465000D03*
D37*
X141360000Y-158830000D03*
D38*
X138820000Y-160100000D03*
D36*
X138820000Y-159465000D03*
D37*
X138820000Y-158830000D03*
D38*
X136280000Y-160100000D03*
D36*
X136280000Y-159465000D03*
D37*
X136280000Y-158830000D03*
D38*
X133740000Y-160100000D03*
D36*
X133740000Y-159465000D03*
D37*
X133740000Y-158830000D03*
D38*
X131200000Y-160100000D03*
D36*
X131200000Y-159465000D03*
D37*
X131200000Y-158830000D03*
D38*
X128660000Y-160100000D03*
D36*
X128660000Y-159465000D03*
D37*
X128660000Y-158830000D03*
D38*
X126120000Y-160100000D03*
D36*
X126120000Y-159465000D03*
D37*
X126120000Y-158830000D03*
D38*
X123580000Y-160100000D03*
D36*
X123580000Y-159465000D03*
D37*
X123580000Y-158830000D03*
D38*
X121040000Y-160100000D03*
D36*
X121040000Y-159465000D03*
D37*
X121040000Y-158830000D03*
D38*
X118500000Y-160100000D03*
D36*
X118500000Y-159465000D03*
D37*
X118500000Y-158830000D03*
D38*
X115960000Y-160100000D03*
D36*
X115960000Y-159465000D03*
D37*
X115960000Y-158830000D03*
D38*
X113420000Y-160100000D03*
D36*
X113420000Y-159465000D03*
D37*
X113420000Y-158830000D03*
D38*
X110880000Y-160100000D03*
D36*
X110880000Y-159465000D03*
D37*
X110880000Y-158830000D03*
D38*
X108340000Y-160100000D03*
D36*
X108340000Y-159465000D03*
D37*
X108340000Y-158830000D03*
X108340000Y-176610000D03*
D36*
X108340000Y-175975000D03*
D35*
X108340000Y-175340000D03*
D37*
X110880000Y-176610000D03*
D36*
X110880000Y-175975000D03*
D38*
X110880000Y-175340000D03*
D37*
X113420000Y-176610000D03*
D36*
X113420000Y-175975000D03*
D38*
X113420000Y-175340000D03*
D37*
X115960000Y-176610000D03*
D36*
X115960000Y-175975000D03*
D38*
X115960000Y-175340000D03*
D37*
X118500000Y-176610000D03*
D36*
X118500000Y-175975000D03*
D38*
X118500000Y-175340000D03*
D37*
X121040000Y-176610000D03*
D36*
X121040000Y-175975000D03*
D38*
X121040000Y-175340000D03*
D37*
X123580000Y-176610000D03*
D36*
X123580000Y-175975000D03*
D38*
X123580000Y-175340000D03*
D37*
X126120000Y-176610000D03*
D36*
X126120000Y-175975000D03*
D38*
X126120000Y-175340000D03*
D37*
X128660000Y-176610000D03*
D36*
X128660000Y-175975000D03*
D38*
X128660000Y-175340000D03*
D37*
X131200000Y-176610000D03*
D36*
X131200000Y-175975000D03*
D38*
X131200000Y-175340000D03*
D37*
X133740000Y-176610000D03*
D36*
X133740000Y-175975000D03*
D38*
X133740000Y-175340000D03*
D37*
X136280000Y-176610000D03*
D36*
X136280000Y-175975000D03*
D38*
X136280000Y-175340000D03*
D37*
X138820000Y-176610000D03*
D36*
X138820000Y-175975000D03*
D38*
X138820000Y-175340000D03*
D37*
X141360000Y-176610000D03*
D36*
X141360000Y-175975000D03*
D38*
X141360000Y-175340000D03*
D37*
X143900000Y-176610000D03*
D36*
X143900000Y-175975000D03*
D38*
X143900000Y-175340000D03*
D10*
X164250000Y-144199996D03*
X164250000Y-129199996D03*
X164250000Y-124199995D03*
X164250000Y-119199995D03*
X156750000Y-119199995D03*
X156750000Y-124199995D03*
X156750000Y-129199996D03*
X156750000Y-144199996D03*
D20*
X279500000Y-135987500D03*
X279500000Y-133012500D03*
D39*
X131190000Y-153020000D03*
D23*
X133730000Y-153020000D03*
X136270000Y-153020000D03*
X138810000Y-153020000D03*
D40*
X150700000Y-170500000D03*
D33*
X150700000Y-167960000D03*
X150700000Y-165420000D03*
X150700000Y-162880000D03*
X150700000Y-160340000D03*
D11*
X225500000Y-204962500D03*
X225500000Y-207037500D03*
X153000000Y-204925000D03*
X153000000Y-207000000D03*
D16*
X121400000Y-149425000D03*
X121400000Y-152400000D03*
D21*
X220775000Y-112975000D03*
X231775000Y-101975000D03*
D17*
X243500000Y-148000000D03*
X243500000Y-150000000D03*
D10*
X177250000Y-201199996D03*
X177250000Y-186199996D03*
X177250000Y-181199995D03*
X177250000Y-176199995D03*
X169750000Y-176199995D03*
X169750000Y-181199995D03*
X169750000Y-186199996D03*
X169750000Y-201199996D03*
D24*
X281500000Y-117075000D03*
X281500000Y-115000000D03*
D20*
X207100000Y-208025000D03*
X207100000Y-205050000D03*
D17*
X172000000Y-205000000D03*
X172000000Y-207000000D03*
D21*
X185000000Y-112475000D03*
X196000000Y-101475000D03*
D10*
X178250000Y-144199996D03*
X178250000Y-129199996D03*
X178250000Y-124199995D03*
X178250000Y-119199995D03*
X170750000Y-119199995D03*
X170750000Y-124199995D03*
X170750000Y-129199996D03*
X170750000Y-144199996D03*
X262000000Y-144500000D03*
X262000000Y-129500000D03*
X262000000Y-124499999D03*
X262000000Y-119499999D03*
X254500000Y-119499999D03*
X254500000Y-124499999D03*
X254500000Y-129500000D03*
X254500000Y-144500000D03*
D20*
X271000000Y-208000000D03*
X271000000Y-205025000D03*
D10*
X220250000Y-144199996D03*
X220250000Y-129199996D03*
X220250000Y-124199995D03*
X220250000Y-119199995D03*
X212750000Y-119199995D03*
X212750000Y-124199995D03*
X212750000Y-129199996D03*
X212750000Y-144199996D03*
D22*
X123540000Y-192000000D03*
D23*
X121000000Y-192000000D03*
D39*
X139190000Y-182020000D03*
D23*
X141730000Y-182020000D03*
X144270000Y-182020000D03*
X146810000Y-182020000D03*
D21*
X237500000Y-88475000D03*
X248500000Y-77475000D03*
D17*
X224500000Y-148000000D03*
X224500000Y-150000000D03*
X171000000Y-148000000D03*
X171000000Y-150000000D03*
D41*
X189487500Y-154000000D03*
X186512500Y-154000000D03*
D11*
X241500000Y-204962500D03*
X241500000Y-207037500D03*
D17*
X289000000Y-99500000D03*
X289000000Y-101500000D03*
X192000000Y-148000000D03*
X192000000Y-150000000D03*
D11*
X218500000Y-204962500D03*
X218500000Y-207037500D03*
D21*
X202225000Y-88475000D03*
X213225000Y-77475000D03*
D13*
X241648400Y-170436750D03*
D14*
X241648400Y-164536750D03*
D15*
X241638400Y-161746750D03*
X241648400Y-159266750D03*
D42*
X131080000Y-182247500D03*
D35*
X131080000Y-184787500D03*
X128540000Y-182247500D03*
X128540000Y-184787500D03*
X126000000Y-182247500D03*
X126000000Y-184787500D03*
X123460000Y-182247500D03*
X123460000Y-184787500D03*
X120920000Y-182247500D03*
X120920000Y-184787500D03*
D11*
X257520000Y-205000000D03*
X257520000Y-207075000D03*
D13*
X217100000Y-165000000D03*
D14*
X223000000Y-165000000D03*
D15*
X225790000Y-164990000D03*
X228270000Y-165000000D03*
M02*
