G04 #@! TF.GenerationSoftware,KiCad,Pcbnew,7.0.1*
G04 #@! TF.CreationDate,2023-05-12T07:13:37+02:00*
G04 #@! TF.ProjectId,K_Aries,4b5f4172-6965-4732-9e6b-696361645f70,rev?*
G04 #@! TF.SameCoordinates,Original*
G04 #@! TF.FileFunction,Soldermask,Bot*
G04 #@! TF.FilePolarity,Negative*
%FSLAX46Y46*%
G04 Gerber Fmt 4.6, Leading zero omitted, Abs format (unit mm)*
G04 Created by KiCad (PCBNEW 7.0.1) date 2023-05-12 07:13:37*
%MOMM*%
%LPD*%
G01*
G04 APERTURE LIST*
G04 Aperture macros list*
%AMRoundRect*
0 Rectangle with rounded corners*
0 $1 Rounding radius*
0 $2 $3 $4 $5 $6 $7 $8 $9 X,Y pos of 4 corners*
0 Add a 4 corners polygon primitive as box body*
4,1,4,$2,$3,$4,$5,$6,$7,$8,$9,$2,$3,0*
0 Add four circle primitives for the rounded corners*
1,1,$1+$1,$2,$3*
1,1,$1+$1,$4,$5*
1,1,$1+$1,$6,$7*
1,1,$1+$1,$8,$9*
0 Add four rect primitives between the rounded corners*
20,1,$1+$1,$2,$3,$4,$5,0*
20,1,$1+$1,$4,$5,$6,$7,0*
20,1,$1+$1,$6,$7,$8,$9,0*
20,1,$1+$1,$8,$9,$2,$3,0*%
G04 Aperture macros list end*
%ADD10C,1.803400*%
%ADD11O,4.000000X3.000000*%
%ADD12R,1.371600X1.371600*%
%ADD13C,1.371600*%
%ADD14C,1.524000*%
%ADD15C,1.998980*%
%ADD16C,2.499360*%
%ADD17C,3.000000*%
%ADD18RoundRect,0.250000X0.620000X0.845000X-0.620000X0.845000X-0.620000X-0.845000X0.620000X-0.845000X0*%
%ADD19O,1.740000X2.190000*%
%ADD20R,1.950000X1.950000*%
%ADD21C,3.600000*%
%ADD22C,1.950000*%
%ADD23C,7.400000*%
%ADD24RoundRect,0.250000X1.330000X1.800000X-1.330000X1.800000X-1.330000X-1.800000X1.330000X-1.800000X0*%
%ADD25O,3.160000X4.100000*%
%ADD26RoundRect,0.250000X-0.845000X0.620000X-0.845000X-0.620000X0.845000X-0.620000X0.845000X0.620000X0*%
%ADD27O,2.190000X1.740000*%
%ADD28C,1.700000*%
%ADD29O,1.700000X1.700000*%
%ADD30RoundRect,0.250000X-0.620000X-0.845000X0.620000X-0.845000X0.620000X0.845000X-0.620000X0.845000X0*%
%ADD31RoundRect,0.250000X0.845000X-0.620000X0.845000X0.620000X-0.845000X0.620000X-0.845000X-0.620000X0*%
%ADD32RoundRect,0.250000X-0.600000X0.600000X-0.600000X-0.600000X0.600000X-0.600000X0.600000X0.600000X0*%
%ADD33RoundRect,0.250000X0.450000X-0.350000X0.450000X0.350000X-0.450000X0.350000X-0.450000X-0.350000X0*%
%ADD34RoundRect,0.250000X-0.250000X0.250000X-0.250000X-0.250000X0.250000X-0.250000X0.250000X0.250000X0*%
%ADD35RoundRect,0.250000X0.337500X0.475000X-0.337500X0.475000X-0.337500X-0.475000X0.337500X-0.475000X0*%
%ADD36RoundRect,0.249999X0.450001X1.425001X-0.450001X1.425001X-0.450001X-1.425001X0.450001X-1.425001X0*%
%ADD37RoundRect,0.250000X0.475000X-0.337500X0.475000X0.337500X-0.475000X0.337500X-0.475000X-0.337500X0*%
%ADD38RoundRect,0.250000X0.250000X-0.250000X0.250000X0.250000X-0.250000X0.250000X-0.250000X-0.250000X0*%
%ADD39RoundRect,0.250000X-0.450000X0.350000X-0.450000X-0.350000X0.450000X-0.350000X0.450000X0.350000X0*%
%ADD40RoundRect,0.250000X-0.337500X-0.475000X0.337500X-0.475000X0.337500X0.475000X-0.337500X0.475000X0*%
%ADD41RoundRect,0.250000X0.250000X0.250000X-0.250000X0.250000X-0.250000X-0.250000X0.250000X-0.250000X0*%
%ADD42RoundRect,0.150000X-0.875000X-0.150000X0.875000X-0.150000X0.875000X0.150000X-0.875000X0.150000X0*%
%ADD43RoundRect,0.150000X-0.825000X-0.150000X0.825000X-0.150000X0.825000X0.150000X-0.825000X0.150000X0*%
%ADD44R,2.950000X1.680000*%
%ADD45RoundRect,0.250000X-0.475000X0.337500X-0.475000X-0.337500X0.475000X-0.337500X0.475000X0.337500X0*%
%ADD46RoundRect,0.249999X-0.450001X-1.425001X0.450001X-1.425001X0.450001X1.425001X-0.450001X1.425001X0*%
%ADD47RoundRect,0.250000X0.450000X-0.325000X0.450000X0.325000X-0.450000X0.325000X-0.450000X-0.325000X0*%
%ADD48RoundRect,0.249999X-0.512501X-1.425001X0.512501X-1.425001X0.512501X1.425001X-0.512501X1.425001X0*%
%ADD49RoundRect,0.150000X0.150000X-0.875000X0.150000X0.875000X-0.150000X0.875000X-0.150000X-0.875000X0*%
%ADD50RoundRect,0.250000X0.350000X0.450000X-0.350000X0.450000X-0.350000X-0.450000X0.350000X-0.450000X0*%
%ADD51R,1.500000X2.000000*%
%ADD52R,3.800000X2.000000*%
%ADD53RoundRect,0.250000X0.925000X-0.875000X0.925000X0.875000X-0.925000X0.875000X-0.925000X-0.875000X0*%
%ADD54RoundRect,0.250000X-0.250000X-0.250000X0.250000X-0.250000X0.250000X0.250000X-0.250000X0.250000X0*%
%ADD55RoundRect,0.250000X-0.925000X0.875000X-0.925000X-0.875000X0.925000X-0.875000X0.925000X0.875000X0*%
%ADD56RoundRect,0.249999X1.425001X-0.512501X1.425001X0.512501X-1.425001X0.512501X-1.425001X-0.512501X0*%
%ADD57RoundRect,0.250000X1.500000X-1.112500X1.500000X1.112500X-1.500000X1.112500X-1.500000X-1.112500X0*%
%ADD58RoundRect,0.150000X-0.587500X-0.150000X0.587500X-0.150000X0.587500X0.150000X-0.587500X0.150000X0*%
%ADD59RoundRect,0.250000X-0.350000X-0.450000X0.350000X-0.450000X0.350000X0.450000X-0.350000X0.450000X0*%
%ADD60RoundRect,0.250000X-0.450000X0.325000X-0.450000X-0.325000X0.450000X-0.325000X0.450000X0.325000X0*%
%ADD61R,1.600000X1.600000*%
G04 APERTURE END LIST*
D10*
X225750000Y-201199996D03*
X225750000Y-186199996D03*
X225750000Y-181199995D03*
X225750000Y-176199995D03*
X218250000Y-176199995D03*
X218250000Y-181199995D03*
X218250000Y-186199996D03*
X218250000Y-201199996D03*
D11*
X111700000Y-83300000D03*
X137200000Y-77300000D03*
X142200000Y-80300000D03*
X108700000Y-88800000D03*
X139200000Y-88800000D03*
X111700000Y-77300000D03*
X137200000Y-83800000D03*
X108700000Y-72300000D03*
X139200000Y-72300000D03*
D12*
X273248400Y-170436750D03*
D13*
X273248400Y-164536750D03*
D14*
X273238400Y-161746750D03*
X273248400Y-159266750D03*
D12*
X176400000Y-170336750D03*
D13*
X176400000Y-164436750D03*
D14*
X176390000Y-161646750D03*
X176400000Y-159166750D03*
D15*
X320460000Y-82540000D03*
D16*
X323000000Y-85080000D03*
X323000000Y-80000000D03*
X317920000Y-85080000D03*
X317920000Y-80000000D03*
D10*
X161000000Y-201199996D03*
X161000000Y-186199996D03*
X161000000Y-181199995D03*
X161000000Y-176199995D03*
X153500000Y-176199995D03*
X153500000Y-181199995D03*
X153500000Y-186199996D03*
X153500000Y-201199996D03*
D17*
X257000000Y-113475000D03*
X268000000Y-102475000D03*
D18*
X114540000Y-200000000D03*
D19*
X112000000Y-200000000D03*
D10*
X193500000Y-201000000D03*
X193500000Y-186000000D03*
X193500000Y-180999999D03*
X193500000Y-175999999D03*
X186000000Y-175999999D03*
X186000000Y-180999999D03*
X186000000Y-186000000D03*
X186000000Y-201000000D03*
X258000000Y-201000001D03*
X258000000Y-186000001D03*
X258000000Y-181000000D03*
X258000000Y-176000000D03*
X250500000Y-176000000D03*
X250500000Y-181000000D03*
X250500000Y-186000001D03*
X250500000Y-201000001D03*
D12*
X198600000Y-164800000D03*
D13*
X204500000Y-164800000D03*
D14*
X207290000Y-164790000D03*
X209770000Y-164800000D03*
D12*
X157300000Y-170350000D03*
D13*
X157300000Y-164450000D03*
D14*
X157290000Y-161660000D03*
X157300000Y-159180000D03*
D20*
X316560000Y-206560000D03*
D21*
X313120000Y-203120000D03*
X313120000Y-210000000D03*
X320000000Y-203120000D03*
X320000000Y-210000000D03*
D17*
X165825000Y-88475000D03*
X176825000Y-77475000D03*
D10*
X281000000Y-193750000D03*
X296000000Y-193750000D03*
X301000001Y-193750000D03*
X306000001Y-193750000D03*
X306000001Y-186250000D03*
X301000001Y-186250000D03*
X296000000Y-186250000D03*
X281000000Y-186250000D03*
D20*
X113440000Y-63440000D03*
D21*
X110000000Y-60000000D03*
X110000000Y-66880000D03*
X116880000Y-60000000D03*
X116880000Y-66880000D03*
D10*
X280800004Y-161250000D03*
X295800004Y-161250000D03*
X300800005Y-161250000D03*
X305800005Y-161250000D03*
X305800005Y-153750000D03*
X300800005Y-153750000D03*
X295800004Y-153750000D03*
X280800004Y-153750000D03*
X273750000Y-201199996D03*
X273750000Y-186199996D03*
X273750000Y-181199995D03*
X273750000Y-176199995D03*
X266250000Y-176199995D03*
X266250000Y-181199995D03*
X266250000Y-186199996D03*
X266250000Y-201199996D03*
D12*
X163700000Y-170336750D03*
D13*
X163700000Y-164436750D03*
D14*
X163690000Y-161646750D03*
X163700000Y-159166750D03*
D12*
X170000000Y-170336750D03*
D13*
X170000000Y-164436750D03*
D14*
X169990000Y-161646750D03*
X170000000Y-159166750D03*
D18*
X109740000Y-150200000D03*
D19*
X107200000Y-150200000D03*
D12*
X217000000Y-171250000D03*
D13*
X222900000Y-171250000D03*
D14*
X225690000Y-171240000D03*
X228170000Y-171250000D03*
D20*
X110250000Y-137750000D03*
D22*
X110250000Y-142830000D03*
D12*
X182700000Y-170450000D03*
D13*
X182700000Y-164550000D03*
D14*
X182690000Y-161760000D03*
X182700000Y-159280000D03*
D20*
X317000000Y-141560000D03*
D21*
X313560000Y-138120000D03*
X313560000Y-145000000D03*
X320440000Y-138120000D03*
X320440000Y-145000000D03*
D12*
X257248400Y-170370000D03*
D13*
X257248400Y-164470000D03*
D14*
X257238400Y-161680000D03*
X257248400Y-159200000D03*
D17*
X273500000Y-88500000D03*
X284500000Y-77500000D03*
D23*
X111000000Y-95000000D03*
D24*
X142960000Y-64595000D03*
D25*
X139000000Y-64595000D03*
X135040000Y-64595000D03*
D26*
X108000000Y-127000000D03*
D27*
X108000000Y-129540000D03*
X108000000Y-132080000D03*
D12*
X198600000Y-171000000D03*
D13*
X204500000Y-171000000D03*
D14*
X207290000Y-170990000D03*
X209770000Y-171000000D03*
D12*
X189000000Y-170450000D03*
D13*
X189000000Y-164550000D03*
D14*
X188990000Y-161760000D03*
X189000000Y-159280000D03*
D20*
X316440000Y-173440000D03*
D21*
X313000000Y-170000000D03*
X313000000Y-176880000D03*
X319880000Y-170000000D03*
X319880000Y-176880000D03*
D20*
X317000000Y-108440000D03*
D21*
X313560000Y-105000000D03*
X313560000Y-111880000D03*
X320440000Y-105000000D03*
X320440000Y-111880000D03*
D10*
X195800004Y-158750000D03*
X210800004Y-158750000D03*
X215800005Y-158750000D03*
X220800005Y-158750000D03*
X220800005Y-151250000D03*
X215800005Y-151250000D03*
X210800004Y-151250000D03*
X195800004Y-151250000D03*
D17*
X155000000Y-111975000D03*
X166000000Y-100975000D03*
D12*
X250000000Y-170370000D03*
D13*
X250000000Y-164470000D03*
D14*
X249990000Y-161680000D03*
X250000000Y-159200000D03*
D10*
X241750000Y-201199996D03*
X241750000Y-186199996D03*
X241750000Y-181199995D03*
X241750000Y-176199995D03*
X234250000Y-176199995D03*
X234250000Y-181199995D03*
X234250000Y-186199996D03*
X234250000Y-201199996D03*
D12*
X234400000Y-170436750D03*
D13*
X234400000Y-164536750D03*
D14*
X234390000Y-161746750D03*
X234400000Y-159266750D03*
D10*
X192000000Y-144399992D03*
X192000000Y-129399992D03*
X192000000Y-124399991D03*
X192000000Y-119399991D03*
X184500000Y-119399991D03*
X184500000Y-124399991D03*
X184500000Y-129399992D03*
X184500000Y-144399992D03*
X209750000Y-201199996D03*
X209750000Y-186199996D03*
X209750000Y-181199995D03*
X209750000Y-176199995D03*
X202250000Y-176199995D03*
X202250000Y-181199995D03*
X202250000Y-186199996D03*
X202250000Y-201199996D03*
X206250000Y-144199996D03*
X206250000Y-129199996D03*
X206250000Y-124199995D03*
X206250000Y-119199995D03*
X198750000Y-119199995D03*
X198750000Y-124199995D03*
X198750000Y-129199996D03*
X198750000Y-144199996D03*
D12*
X266000000Y-170436750D03*
D13*
X266000000Y-164536750D03*
D14*
X265990000Y-161746750D03*
X266000000Y-159266750D03*
D23*
X319000000Y-94000000D03*
D20*
X318440000Y-65000000D03*
D21*
X315000000Y-61560000D03*
X315000000Y-68440000D03*
X321880000Y-61560000D03*
X321880000Y-68440000D03*
D23*
X110000000Y-211000000D03*
D10*
X248250000Y-144199996D03*
X248250000Y-129199996D03*
X248250000Y-124199995D03*
X248250000Y-119199995D03*
X240750000Y-119199995D03*
X240750000Y-124199995D03*
X240750000Y-129199996D03*
X240750000Y-144199996D03*
X280999999Y-128750000D03*
X295999999Y-128750000D03*
X301000000Y-128750000D03*
X306000000Y-128750000D03*
X306000000Y-121250000D03*
X301000000Y-121250000D03*
X295999999Y-121250000D03*
X280999999Y-121250000D03*
D14*
X292380000Y-96810000D03*
X300000000Y-96810000D03*
X305080000Y-96810000D03*
X310160000Y-96810000D03*
X310160000Y-89190000D03*
X305080000Y-89190000D03*
X300000000Y-89190000D03*
X292380000Y-89190000D03*
D23*
X301000000Y-210000000D03*
D10*
X234250000Y-144199996D03*
X234250000Y-129199996D03*
X234250000Y-124199995D03*
X234250000Y-119199995D03*
X226750000Y-119199995D03*
X226750000Y-124199995D03*
X226750000Y-129199996D03*
X226750000Y-144199996D03*
D28*
X143900000Y-160100000D03*
D29*
X141360000Y-160100000D03*
X138820000Y-160100000D03*
X136280000Y-160100000D03*
X133740000Y-160100000D03*
X131200000Y-160100000D03*
X128660000Y-160100000D03*
X126120000Y-160100000D03*
X123580000Y-160100000D03*
X121040000Y-160100000D03*
X118500000Y-160100000D03*
X115960000Y-160100000D03*
X113420000Y-160100000D03*
X110880000Y-160100000D03*
X108340000Y-160100000D03*
D28*
X108340000Y-175340000D03*
D29*
X110880000Y-175340000D03*
X113420000Y-175340000D03*
X115960000Y-175340000D03*
X118500000Y-175340000D03*
X121040000Y-175340000D03*
X123580000Y-175340000D03*
X126120000Y-175340000D03*
X128660000Y-175340000D03*
X131200000Y-175340000D03*
X133740000Y-175340000D03*
X136280000Y-175340000D03*
X138820000Y-175340000D03*
X141360000Y-175340000D03*
X143900000Y-175340000D03*
D10*
X164250000Y-144199996D03*
X164250000Y-129199996D03*
X164250000Y-124199995D03*
X164250000Y-119199995D03*
X156750000Y-119199995D03*
X156750000Y-124199995D03*
X156750000Y-129199996D03*
X156750000Y-144199996D03*
D30*
X131190000Y-153020000D03*
D19*
X133730000Y-153020000D03*
X136270000Y-153020000D03*
X138810000Y-153020000D03*
D31*
X150700000Y-170500000D03*
D27*
X150700000Y-167960000D03*
X150700000Y-165420000D03*
X150700000Y-162880000D03*
X150700000Y-160340000D03*
D17*
X220775000Y-112975000D03*
X231775000Y-101975000D03*
D10*
X177250000Y-201199996D03*
X177250000Y-186199996D03*
X177250000Y-181199995D03*
X177250000Y-176199995D03*
X169750000Y-176199995D03*
X169750000Y-181199995D03*
X169750000Y-186199996D03*
X169750000Y-201199996D03*
D17*
X185000000Y-112475000D03*
X196000000Y-101475000D03*
D10*
X178250000Y-144199996D03*
X178250000Y-129199996D03*
X178250000Y-124199995D03*
X178250000Y-119199995D03*
X170750000Y-119199995D03*
X170750000Y-124199995D03*
X170750000Y-129199996D03*
X170750000Y-144199996D03*
X262000000Y-144500000D03*
X262000000Y-129500000D03*
X262000000Y-124499999D03*
X262000000Y-119499999D03*
X254500000Y-119499999D03*
X254500000Y-124499999D03*
X254500000Y-129500000D03*
X254500000Y-144500000D03*
X220250000Y-144199996D03*
X220250000Y-129199996D03*
X220250000Y-124199995D03*
X220250000Y-119199995D03*
X212750000Y-119199995D03*
X212750000Y-124199995D03*
X212750000Y-129199996D03*
X212750000Y-144199996D03*
D18*
X123540000Y-192000000D03*
D19*
X121000000Y-192000000D03*
D30*
X139190000Y-182020000D03*
D19*
X141730000Y-182020000D03*
X144270000Y-182020000D03*
X146810000Y-182020000D03*
D17*
X237500000Y-88475000D03*
X248500000Y-77475000D03*
X202225000Y-88475000D03*
X213225000Y-77475000D03*
D12*
X241648400Y-170436750D03*
D13*
X241648400Y-164536750D03*
D14*
X241638400Y-161746750D03*
X241648400Y-159266750D03*
D32*
X131080000Y-182247500D03*
D28*
X131080000Y-184787500D03*
X128540000Y-182247500D03*
X128540000Y-184787500D03*
X126000000Y-182247500D03*
X126000000Y-184787500D03*
X123460000Y-182247500D03*
X123460000Y-184787500D03*
X120920000Y-182247500D03*
X120920000Y-184787500D03*
D12*
X217100000Y-165000000D03*
D13*
X223000000Y-165000000D03*
D14*
X225790000Y-164990000D03*
X228270000Y-165000000D03*
D33*
X123500000Y-118500000D03*
X123500000Y-116500000D03*
D34*
X136500000Y-116250000D03*
X136500000Y-118750000D03*
D35*
X116637500Y-182600000D03*
X114562500Y-182600000D03*
D36*
X132000000Y-62500000D03*
X125900000Y-62500000D03*
D37*
X132000000Y-122037500D03*
X132000000Y-119962500D03*
D38*
X281000000Y-191250000D03*
X281000000Y-188750000D03*
D35*
X220537500Y-146500000D03*
X218462500Y-146500000D03*
D39*
X128000000Y-120000000D03*
X128000000Y-122000000D03*
D40*
X139425000Y-144000000D03*
X141500000Y-144000000D03*
D41*
X271250000Y-201000000D03*
X268750000Y-201000000D03*
D42*
X140000000Y-197000000D03*
X140000000Y-195730000D03*
X140000000Y-194460000D03*
X140000000Y-193190000D03*
X140000000Y-191920000D03*
X140000000Y-190650000D03*
X140000000Y-189380000D03*
X140000000Y-188110000D03*
X140000000Y-186840000D03*
X140000000Y-185570000D03*
X149300000Y-185570000D03*
X149300000Y-186840000D03*
X149300000Y-188110000D03*
X149300000Y-189380000D03*
X149300000Y-190650000D03*
X149300000Y-191920000D03*
X149300000Y-193190000D03*
X149300000Y-194460000D03*
X149300000Y-195730000D03*
X149300000Y-197000000D03*
D43*
X131225000Y-144360000D03*
X131225000Y-143090000D03*
X131225000Y-141820000D03*
X131225000Y-140550000D03*
X131225000Y-139280000D03*
X131225000Y-138010000D03*
X131225000Y-136740000D03*
X136175000Y-136740000D03*
X136175000Y-138010000D03*
X136175000Y-139280000D03*
X136175000Y-140550000D03*
X136175000Y-141820000D03*
X136175000Y-143090000D03*
X136175000Y-144360000D03*
D44*
X114000000Y-131990000D03*
X114000000Y-127210000D03*
D39*
X122000000Y-166800000D03*
X122000000Y-168800000D03*
D34*
X128000000Y-187300000D03*
X128000000Y-189800000D03*
D41*
X175900000Y-144200000D03*
X173400000Y-144200000D03*
D33*
X135700000Y-165000000D03*
X135700000Y-163000000D03*
X111500000Y-164500000D03*
X111500000Y-162500000D03*
D42*
X142350000Y-140715000D03*
X142350000Y-139445000D03*
X142350000Y-138175000D03*
X142350000Y-136905000D03*
X142350000Y-135635000D03*
X142350000Y-134365000D03*
X142350000Y-133095000D03*
X142350000Y-131825000D03*
X142350000Y-130555000D03*
X142350000Y-129285000D03*
X151650000Y-129285000D03*
X151650000Y-130555000D03*
X151650000Y-131825000D03*
X151650000Y-133095000D03*
X151650000Y-134365000D03*
X151650000Y-135635000D03*
X151650000Y-136905000D03*
X151650000Y-138175000D03*
X151650000Y-139445000D03*
X151650000Y-140715000D03*
D39*
X136000000Y-122500000D03*
X136000000Y-124500000D03*
D40*
X122962500Y-112500000D03*
X125037500Y-112500000D03*
D45*
X268500000Y-144962500D03*
X268500000Y-147037500D03*
D46*
X132000000Y-104000000D03*
X138100000Y-104000000D03*
D47*
X283000000Y-191025000D03*
X283000000Y-188975000D03*
D41*
X245750000Y-144500000D03*
X243250000Y-144500000D03*
D46*
X131950000Y-99000000D03*
X138050000Y-99000000D03*
D48*
X268512500Y-141500000D03*
X274487500Y-141500000D03*
D49*
X133465000Y-205900000D03*
X132195000Y-205900000D03*
X130925000Y-205900000D03*
X129655000Y-205900000D03*
X128385000Y-205900000D03*
X127115000Y-205900000D03*
X125845000Y-205900000D03*
X124575000Y-205900000D03*
X123305000Y-205900000D03*
X122035000Y-205900000D03*
X122035000Y-196600000D03*
X123305000Y-196600000D03*
X124575000Y-196600000D03*
X125845000Y-196600000D03*
X127115000Y-196600000D03*
X128385000Y-196600000D03*
X129655000Y-196600000D03*
X130925000Y-196600000D03*
X132195000Y-196600000D03*
X133465000Y-196600000D03*
D48*
X144012500Y-147500000D03*
X149987500Y-147500000D03*
D41*
X239250000Y-201000000D03*
X236750000Y-201000000D03*
D39*
X125900000Y-154400000D03*
X125900000Y-156400000D03*
D43*
X128650000Y-117960000D03*
X128650000Y-116690000D03*
X128650000Y-115420000D03*
X128650000Y-114150000D03*
X133600000Y-114150000D03*
X133600000Y-115420000D03*
X133600000Y-116690000D03*
X133600000Y-117960000D03*
D38*
X196000000Y-156250000D03*
X196000000Y-153750000D03*
D41*
X191250000Y-201000000D03*
X188750000Y-201000000D03*
D45*
X116500000Y-154962500D03*
X116500000Y-157037500D03*
D41*
X161650000Y-144000000D03*
X159150000Y-144000000D03*
D50*
X143000000Y-112500000D03*
X141000000Y-112500000D03*
D33*
X140500000Y-110500000D03*
X140500000Y-108500000D03*
D45*
X152500000Y-146462500D03*
X152500000Y-148537500D03*
D41*
X158250000Y-201500000D03*
X155750000Y-201500000D03*
D38*
X281000000Y-126000000D03*
X281000000Y-123500000D03*
D45*
X141500000Y-146462500D03*
X141500000Y-148537500D03*
D40*
X197962500Y-151000000D03*
X200037500Y-151000000D03*
D38*
X143000000Y-109750000D03*
X143000000Y-107250000D03*
D37*
X130000000Y-122037500D03*
X130000000Y-119962500D03*
D40*
X212462500Y-142000000D03*
X214537500Y-142000000D03*
D41*
X255750000Y-201000000D03*
X253250000Y-201000000D03*
D38*
X138000000Y-165750000D03*
X138000000Y-163250000D03*
D40*
X201462500Y-146000000D03*
X203537500Y-146000000D03*
D33*
X121000000Y-165000000D03*
X121000000Y-163000000D03*
D40*
X197962500Y-158500000D03*
X200037500Y-158500000D03*
D51*
X123400000Y-133500000D03*
X125700000Y-133500000D03*
D52*
X125700000Y-139800000D03*
D51*
X128000000Y-133500000D03*
D41*
X223250000Y-201000000D03*
X220750000Y-201000000D03*
D36*
X132050000Y-67000000D03*
X125950000Y-67000000D03*
D34*
X126000000Y-116250000D03*
X126000000Y-118750000D03*
D45*
X136600000Y-194362500D03*
X136600000Y-196437500D03*
D40*
X147462500Y-206500000D03*
X149537500Y-206500000D03*
D37*
X123000000Y-110537500D03*
X123000000Y-108462500D03*
D53*
X108500000Y-121050000D03*
X108500000Y-115950000D03*
D40*
X282962500Y-160500000D03*
X285037500Y-160500000D03*
D54*
X117750000Y-199000000D03*
X120250000Y-199000000D03*
D45*
X113500000Y-154862500D03*
X113500000Y-156937500D03*
D55*
X119500000Y-135450000D03*
X119500000Y-140550000D03*
D45*
X135500000Y-208962500D03*
X135500000Y-211037500D03*
D37*
X135000000Y-131037500D03*
X135000000Y-128962500D03*
D41*
X259750000Y-144500000D03*
X257250000Y-144500000D03*
D38*
X292500000Y-94500000D03*
X292500000Y-92000000D03*
D35*
X139000000Y-112500000D03*
X136925000Y-112500000D03*
D51*
X116300000Y-121150000D03*
X114000000Y-121150000D03*
D52*
X114000000Y-114850000D03*
D51*
X111700000Y-121150000D03*
D56*
X286500000Y-101487500D03*
X286500000Y-95512500D03*
D47*
X283000000Y-158525000D03*
X283000000Y-156475000D03*
D38*
X118500000Y-109750000D03*
X118500000Y-107250000D03*
D46*
X120950000Y-99000000D03*
X127050000Y-99000000D03*
D33*
X114000000Y-164500000D03*
X114000000Y-162500000D03*
D41*
X189750000Y-144400000D03*
X187250000Y-144400000D03*
D35*
X124037500Y-208500000D03*
X121962500Y-208500000D03*
D33*
X126000000Y-122500000D03*
X126000000Y-120500000D03*
D41*
X203750000Y-144000000D03*
X201250000Y-144000000D03*
D57*
X120000000Y-121862500D03*
X120000000Y-116137500D03*
D35*
X111237500Y-170700000D03*
X109162500Y-170700000D03*
D58*
X287625000Y-89450000D03*
X287625000Y-87550000D03*
X289500000Y-88500000D03*
D59*
X119000000Y-112500000D03*
X121000000Y-112500000D03*
D40*
X130962500Y-133500000D03*
X133037500Y-133500000D03*
X285962500Y-104000000D03*
X288037500Y-104000000D03*
D37*
X274500000Y-138037500D03*
X274500000Y-135962500D03*
D50*
X111200000Y-172800000D03*
X109200000Y-172800000D03*
D45*
X274500000Y-144962500D03*
X274500000Y-147037500D03*
D38*
X281000000Y-158750000D03*
X281000000Y-156250000D03*
D35*
X120037500Y-201000000D03*
X117962500Y-201000000D03*
D37*
X138500000Y-110537500D03*
X138500000Y-108462500D03*
D41*
X174750000Y-201500000D03*
X172250000Y-201500000D03*
D39*
X111000000Y-155000000D03*
X111000000Y-157000000D03*
D35*
X141037500Y-121500000D03*
X138962500Y-121500000D03*
D60*
X118400000Y-170975000D03*
X118400000Y-173025000D03*
D45*
X139800000Y-138962500D03*
X139800000Y-141037500D03*
D47*
X283000000Y-126025000D03*
X283000000Y-123975000D03*
D53*
X119500000Y-132000000D03*
X119500000Y-126900000D03*
D40*
X140962500Y-200000000D03*
X143037500Y-200000000D03*
D35*
X116537500Y-179500000D03*
X114462500Y-179500000D03*
D41*
X232000000Y-144000000D03*
X229500000Y-144000000D03*
X217750000Y-144185000D03*
X215250000Y-144185000D03*
D48*
X125512500Y-129500000D03*
X131487500Y-129500000D03*
D33*
X121000000Y-110500000D03*
X121000000Y-108500000D03*
D40*
X282962500Y-128000000D03*
X285037500Y-128000000D03*
D35*
X141037500Y-123500000D03*
X138962500Y-123500000D03*
D41*
X117750000Y-189500000D03*
X115250000Y-189500000D03*
D61*
X125190000Y-163990000D03*
X127730000Y-163990000D03*
X130270000Y-163990000D03*
X132810000Y-163990000D03*
X132810000Y-171610000D03*
X130270000Y-171610000D03*
X127730000Y-171610000D03*
X125190000Y-171610000D03*
D48*
X141512500Y-203500000D03*
X147487500Y-203500000D03*
D37*
X268500000Y-138037500D03*
X268500000Y-135962500D03*
D35*
X126575000Y-142500000D03*
X124500000Y-142500000D03*
D33*
X135700000Y-169300000D03*
X135700000Y-167300000D03*
D40*
X283000000Y-193000000D03*
X285075000Y-193000000D03*
D41*
X207250000Y-201000000D03*
X204750000Y-201000000D03*
D45*
X206500000Y-149462500D03*
X206500000Y-151537500D03*
D40*
X115462500Y-191500000D03*
X117537500Y-191500000D03*
D37*
X285000000Y-91537500D03*
X285000000Y-89462500D03*
D33*
X139000000Y-118500000D03*
X139000000Y-116500000D03*
D46*
X121050000Y-103900000D03*
X127150000Y-103900000D03*
D60*
X115900000Y-170875000D03*
X115900000Y-172925000D03*
D39*
X134000000Y-120000000D03*
X134000000Y-122000000D03*
D33*
X116500000Y-164500000D03*
X116500000Y-162500000D03*
M02*
