%TF.GenerationSoftware,KiCad,Pcbnew,7.0.1*%
%TF.CreationDate,2023-05-26T07:14:48+02:00*%
%TF.ProjectId,K_Aries,4b5f4172-6965-4732-9e6b-696361645f70,rev?*%
%TF.SameCoordinates,Original*%
%TF.FileFunction,Drillmap*%
%TF.FilePolarity,Positive*%
%FSLAX45Y45*%
G04 Gerber Fmt 4.5, Leading zero omitted, Abs format (unit mm)*
G04 Created by KiCad (PCBNEW 7.0.1) date 2023-05-26 07:14:48*
%MOMM*%
%LPD*%
G01*
G04 APERTURE LIST*
%ADD10C,0.100000*%
%ADD11C,0.200000*%
G04 APERTURE END LIST*
D10*
X10500000Y-5500000D02*
X32500000Y-5500000D01*
X10500000Y-21500000D02*
X10500000Y-5500000D01*
X32500000Y-5500000D02*
X32500000Y-21500000D01*
X32500000Y-21500000D02*
X10500000Y-21500000D01*
D11*
X10742619Y-21817524D02*
X10742619Y-21617524D01*
X10742619Y-21617524D02*
X10790238Y-21617524D01*
X10790238Y-21617524D02*
X10818810Y-21627048D01*
X10818810Y-21627048D02*
X10837857Y-21646095D01*
X10837857Y-21646095D02*
X10847381Y-21665143D01*
X10847381Y-21665143D02*
X10856905Y-21703238D01*
X10856905Y-21703238D02*
X10856905Y-21731810D01*
X10856905Y-21731810D02*
X10847381Y-21769905D01*
X10847381Y-21769905D02*
X10837857Y-21788952D01*
X10837857Y-21788952D02*
X10818810Y-21808000D01*
X10818810Y-21808000D02*
X10790238Y-21817524D01*
X10790238Y-21817524D02*
X10742619Y-21817524D01*
X10942619Y-21817524D02*
X10942619Y-21684190D01*
X10942619Y-21722286D02*
X10952143Y-21703238D01*
X10952143Y-21703238D02*
X10961667Y-21693714D01*
X10961667Y-21693714D02*
X10980714Y-21684190D01*
X10980714Y-21684190D02*
X10999762Y-21684190D01*
X11066429Y-21817524D02*
X11066429Y-21684190D01*
X11066429Y-21617524D02*
X11056905Y-21627048D01*
X11056905Y-21627048D02*
X11066429Y-21636571D01*
X11066429Y-21636571D02*
X11075952Y-21627048D01*
X11075952Y-21627048D02*
X11066429Y-21617524D01*
X11066429Y-21617524D02*
X11066429Y-21636571D01*
X11190238Y-21817524D02*
X11171190Y-21808000D01*
X11171190Y-21808000D02*
X11161667Y-21788952D01*
X11161667Y-21788952D02*
X11161667Y-21617524D01*
X11295000Y-21817524D02*
X11275952Y-21808000D01*
X11275952Y-21808000D02*
X11266428Y-21788952D01*
X11266428Y-21788952D02*
X11266428Y-21617524D01*
X11523571Y-21817524D02*
X11523571Y-21617524D01*
X11523571Y-21617524D02*
X11590238Y-21760381D01*
X11590238Y-21760381D02*
X11656905Y-21617524D01*
X11656905Y-21617524D02*
X11656905Y-21817524D01*
X11837857Y-21817524D02*
X11837857Y-21712762D01*
X11837857Y-21712762D02*
X11828333Y-21693714D01*
X11828333Y-21693714D02*
X11809286Y-21684190D01*
X11809286Y-21684190D02*
X11771190Y-21684190D01*
X11771190Y-21684190D02*
X11752143Y-21693714D01*
X11837857Y-21808000D02*
X11818809Y-21817524D01*
X11818809Y-21817524D02*
X11771190Y-21817524D01*
X11771190Y-21817524D02*
X11752143Y-21808000D01*
X11752143Y-21808000D02*
X11742619Y-21788952D01*
X11742619Y-21788952D02*
X11742619Y-21769905D01*
X11742619Y-21769905D02*
X11752143Y-21750857D01*
X11752143Y-21750857D02*
X11771190Y-21741333D01*
X11771190Y-21741333D02*
X11818809Y-21741333D01*
X11818809Y-21741333D02*
X11837857Y-21731810D01*
X11933095Y-21684190D02*
X11933095Y-21884190D01*
X11933095Y-21693714D02*
X11952143Y-21684190D01*
X11952143Y-21684190D02*
X11990238Y-21684190D01*
X11990238Y-21684190D02*
X12009286Y-21693714D01*
X12009286Y-21693714D02*
X12018809Y-21703238D01*
X12018809Y-21703238D02*
X12028333Y-21722286D01*
X12028333Y-21722286D02*
X12028333Y-21779429D01*
X12028333Y-21779429D02*
X12018809Y-21798476D01*
X12018809Y-21798476D02*
X12009286Y-21808000D01*
X12009286Y-21808000D02*
X11990238Y-21817524D01*
X11990238Y-21817524D02*
X11952143Y-21817524D01*
X11952143Y-21817524D02*
X11933095Y-21808000D01*
X12114048Y-21798476D02*
X12123571Y-21808000D01*
X12123571Y-21808000D02*
X12114048Y-21817524D01*
X12114048Y-21817524D02*
X12104524Y-21808000D01*
X12104524Y-21808000D02*
X12114048Y-21798476D01*
X12114048Y-21798476D02*
X12114048Y-21817524D01*
X12114048Y-21693714D02*
X12123571Y-21703238D01*
X12123571Y-21703238D02*
X12114048Y-21712762D01*
X12114048Y-21712762D02*
X12104524Y-21703238D01*
X12104524Y-21703238D02*
X12114048Y-21693714D01*
X12114048Y-21693714D02*
X12114048Y-21712762D01*
M02*
