M48
; DRILL file {KiCad 7.0.1} date Thu May 11 10:42:59 2023
; FORMAT={-:-/ absolute / metric / decimal}
; #@! TF.CreationDate,2023-05-11T10:42:59+02:00
; #@! TF.GenerationSoftware,Kicad,Pcbnew,7.0.1
; #@! TF.FileFunction,Plated,1,2,PTH
FMAT,2
METRIC
; #@! TA.AperFunction,Plated,PTH,ViaDrill
T1C0.400
; #@! TA.AperFunction,Plated,PTH,ComponentDrill
T2C0.762
; #@! TA.AperFunction,Plated,PTH,ComponentDrill
T3C0.864
; #@! TA.AperFunction,Plated,PTH,ComponentDrill
T4C1.000
; #@! TA.AperFunction,Plated,PTH,ComponentDrill
T5C1.016
; #@! TA.AperFunction,Plated,PTH,ComponentDrill
T6C1.190
; #@! TA.AperFunction,Plated,PTH,ComponentDrill
T7C1.295
; #@! TA.AperFunction,Plated,PTH,ComponentDrill
T8C1.300
; #@! TA.AperFunction,Plated,PTH,ComponentDrill
T9C1.300
; #@! TA.AperFunction,Plated,PTH,ComponentDrill
T10C1.500
; #@! TA.AperFunction,Plated,PTH,ComponentDrill
T11C1.700
; #@! TA.AperFunction,Plated,PTH,ComponentDrill
T12C2.400
; #@! TA.AperFunction,Plated,PTH,ComponentDrill
T13C3.700
%
G90
G05
T1
X107.5Y-114.0
X107.8Y-145.0
X107.8Y-146.6
X107.8Y-166.0
X108.4Y-182.0
X108.8Y-166.0
X108.8Y-170.8
X108.8Y-172.0
X110.0Y-114.0
X110.0Y-166.0
X111.8Y-167.8
X112.8Y-166.8
X113.0Y-179.5
X114.0Y-153.5
X114.5Y-181.0
X115.2Y-150.371
X115.5Y-123.0
X115.6Y-193.0
X116.4Y-147.8
X116.5Y-153.5
X116.8Y-166.0
X117.0Y-123.0
X117.5Y-116.0
X117.5Y-127.0
X118.0Y-142.5
X119.0Y-162.8
X119.8Y-108.6
X120.0Y-168.0
X120.0Y-202.5
X120.4Y-142.4
X120.5Y-173.5
X121.0Y-107.5
X121.0Y-208.5
X121.5Y-118.5
X121.5Y-127.0
X121.5Y-201.0
X122.0Y-198.5
X122.0Y-204.0
X122.0Y-209.5
X123.0Y-107.5
X123.0Y-131.8
X123.0Y-135.5
X123.4Y-204.0
X123.5Y-120.0
X123.8Y-144.8
X124.0Y-60.5
X124.0Y-62.5
X124.0Y-64.5
X124.0Y-67.0
X124.0Y-69.0
X125.0Y-108.4
X125.0Y-111.0
X125.0Y-120.5
X125.4Y-144.8
X125.8Y-167.4
X126.0Y-162.0
X126.5Y-112.5
X126.6Y-150.0
X126.6Y-146.85
X127.0Y-115.0
X127.2Y-165.8
X127.2Y-170.0
X128.0Y-123.8
X128.0Y-135.5
X128.0Y-137.0
X128.0Y-173.8
X129.0Y-123.8
X129.5Y-97.5
X129.5Y-98.5
X129.5Y-99.5
X129.5Y-100.5
X129.5Y-101.5
X129.5Y-102.5
X129.5Y-103.5
X129.5Y-104.5
X129.5Y-105.5
X129.8Y-189.2
X129.8Y-191.0
X130.0Y-114.5
X130.0Y-119.0
X130.27Y-169.8
X130.565Y-148.165
X131.0Y-118.8
X131.0Y-135.5
X131.0Y-162.0
X131.5Y-115.5
X131.6Y-194.999
X131.6Y-199.2
X132.0Y-112.5
X132.0Y-162.0
X133.0Y-123.8
X133.0Y-135.0
X133.0Y-199.2
X133.2Y-136.8
X133.2Y-194.0
X133.4Y-165.6
X133.5Y-207.5
X133.75Y-126.45
X134.0Y-123.8
X134.0Y-133.5
X134.0Y-211.0
X134.2Y-191.0
X134.5Y-206.0
X134.6Y-141.4
X134.6Y-200.6
X135.0Y-132.5
X135.2Y-127.4
X135.5Y-207.0
X135.6Y-112.4
X135.8Y-146.5
X135.8Y-190.2
X135.8Y-192.0
X136.0Y-126.0
X136.473Y-131.027
X136.6Y-180.8
X136.8Y-111.0
X137.0Y-108.4
X137.0Y-146.5
X137.0Y-197.8
X137.0Y-211.0
X137.5Y-124.5
X137.5Y-129.5
X138.0Y-193.0
X138.2Y-136.8
X138.2Y-169.8
X138.2Y-171.0
X138.2Y-201.0
X138.2Y-138.2
X138.5Y-107.5
X138.5Y-130.5
X138.5Y-148.3
X138.8Y-142.4
X139.0Y-119.5
X139.0Y-198.2
X139.41Y-202.094
X140.0Y-148.5
X140.2Y-107.655
X140.4Y-142.4
X140.5Y-118.5
X140.5Y-129.5
X140.5Y-130.5
X141.0Y-120.5
X141.0Y-125.0
X141.5Y-142.5
X141.5Y-150.0
X141.5Y-187.0
X141.6Y-108.4
X141.6Y-186.0
X142.0Y-121.5
X142.0Y-123.5
X142.2Y-167.6
X143.0Y-144.0
X143.5Y-201.5
X144.0Y-129.5
X144.0Y-130.5
X144.5Y-200.5
X144.6Y-192.0
X145.0Y-141.4
X146.0Y-192.0
X146.0Y-210.0
X146.015Y-195.535
X146.6Y-171.0
X147.0Y-169.8
X147.2Y-149.8
X147.5Y-195.5
X147.5Y-197.0
X147.613Y-186.413
X148.6Y-131.843
X149.4Y-130.6
X149.5Y-205.0
X149.6Y-138.2
X149.6Y-144.6
X150.215Y-129.285
X150.399Y-182.0
X151.0Y-186.0
X151.0Y-206.5
X151.0Y-184.8
X151.5Y-150.0
X153.0Y-139.5
X153.0Y-140.5
X153.0Y-150.0
X153.25Y-129.5
X158.8Y-138.2
X183.5Y-152.5
X185.0Y-152.5
X199.8Y-142.6
X200.931Y-141.799
X201.0Y-150.5
X201.0Y-151.5
X201.0Y-158.0
X201.0Y-159.0
X202.0Y-139.2
X202.003Y-141.2
X203.333Y-147.258
X203.5Y-140.0
X204.0Y-154.5
X204.5Y-146.0
X205.5Y-153.0
X206.0Y-154.5
X207.5Y-153.0
X208.0Y-154.5
X212.462Y-140.0
X213.4Y-150.8
X213.4Y-152.2
X213.4Y-156.6
X213.4Y-158.4
X214.5Y-143.0
X215.0Y-145.4
X215.0Y-146.8
X215.5Y-142.999
X217.0Y-145.5
X217.0Y-147.0
X218.2Y-150.8
X218.2Y-152.2
X218.2Y-156.6
X218.2Y-158.4
X218.5Y-196.5
X223.6Y-154.5
X225.0Y-154.5
X226.2Y-154.5
X228.003Y-140.6
X229.8Y-141.4
X231.8Y-140.2
X234.0Y-197.5
X235.65Y-141.65
X236.5Y-143.5
X236.5Y-145.5
X250.0Y-198.5
X263.0Y-138.0
X267.0Y-136.0
X267.0Y-147.0
X270.0Y-136.0
X270.0Y-147.0
X273.0Y-136.0
X273.0Y-147.0
X276.0Y-136.0
X276.0Y-147.0
X284.5Y-87.5
X284.9Y-126.5
X284.9Y-128.0
X285.0Y-159.0
X285.566Y-191.908
X286.0Y-87.5
X286.0Y-107.2
X286.5Y-160.5
X286.5Y-193.0
X287.5Y-86.5
X288.0Y-105.5
X289.5Y-104.0
X303.5Y-121.5
X303.5Y-123.5
X303.5Y-125.5
X303.5Y-127.5
X303.5Y-129.5
X303.5Y-154.0
X303.5Y-156.0
X303.5Y-158.0
X303.5Y-160.0
X303.5Y-162.0
X303.5Y-186.5
X303.5Y-188.5
X303.5Y-190.5
X303.5Y-192.5
X303.5Y-194.5
T2
X156.49Y-161.647
X156.5Y-159.167
X162.99Y-161.647
X163.0Y-159.167
X169.49Y-161.647
X169.5Y-159.167
X175.99Y-161.647
X176.0Y-159.167
X182.49Y-161.76
X182.5Y-159.28
X188.99Y-161.76
X189.0Y-159.28
X207.29Y-164.79
X207.29Y-170.99
X209.77Y-164.8
X209.77Y-171.0
X225.69Y-171.24
X225.79Y-164.99
X228.17Y-171.25
X228.27Y-165.0
X234.39Y-161.747
X234.4Y-159.267
X241.638Y-161.747
X241.648Y-159.267
X249.99Y-161.68
X250.0Y-159.2
X257.238Y-161.68
X257.248Y-159.2
X265.99Y-161.747
X266.0Y-159.267
X273.238Y-161.747
X273.248Y-159.267
T3
X156.5Y-164.437
X156.5Y-170.337
X163.0Y-164.437
X163.0Y-170.337
X169.5Y-164.437
X169.5Y-170.337
X176.0Y-164.437
X176.0Y-170.337
X182.5Y-164.55
X182.5Y-170.45
X189.0Y-164.55
X189.0Y-170.45
X198.6Y-164.8
X198.6Y-171.0
X204.5Y-164.8
X204.5Y-171.0
X217.0Y-171.25
X217.1Y-165.0
X222.9Y-171.25
X223.0Y-165.0
X234.4Y-164.537
X234.4Y-170.437
X241.648Y-164.537
X241.648Y-170.437
X250.0Y-164.47
X250.0Y-170.37
X257.248Y-164.47
X257.248Y-170.37
X266.0Y-164.537
X266.0Y-170.437
X273.248Y-164.537
X273.248Y-170.437
T4
X108.94Y-160.26
X108.94Y-175.5
X111.48Y-160.26
X111.48Y-175.5
X114.02Y-160.26
X114.02Y-175.5
X116.56Y-160.26
X116.56Y-175.5
X119.1Y-160.26
X119.1Y-175.5
X120.92Y-182.248
X120.92Y-184.787
X121.64Y-160.26
X121.64Y-175.5
X123.46Y-182.248
X123.46Y-184.787
X124.18Y-160.26
X124.18Y-175.5
X126.0Y-182.248
X126.0Y-184.787
X126.72Y-160.26
X126.72Y-175.5
X128.54Y-182.248
X128.54Y-184.787
X129.26Y-160.26
X129.26Y-175.5
X131.08Y-182.248
X131.08Y-184.787
X131.8Y-160.26
X131.8Y-175.5
X134.34Y-160.26
X134.34Y-175.5
X136.88Y-160.26
X136.88Y-175.5
X139.42Y-160.26
X139.42Y-175.5
X141.96Y-160.26
X141.96Y-175.5
X144.5Y-160.26
X144.5Y-175.5
T5
X292.38Y-89.19
X292.38Y-96.81
X300.0Y-89.19
X300.0Y-96.81
X305.08Y-89.19
X305.08Y-96.81
X310.16Y-89.19
X310.16Y-96.81
T6
X107.2Y-150.2
X108.0Y-127.0
X108.0Y-129.54
X108.0Y-132.08
X109.74Y-150.2
X112.0Y-200.0
X114.54Y-200.0
X121.0Y-192.0
X123.54Y-192.0
X131.19Y-153.02
X133.73Y-153.02
X136.27Y-153.02
X138.81Y-153.02
X139.19Y-182.02
X141.73Y-182.02
X144.27Y-182.02
X146.81Y-182.02
X150.0Y-160.32
X150.0Y-162.86
X150.0Y-165.4
X150.0Y-167.94
X150.0Y-170.48
T7
X153.5Y-176.2
X153.5Y-181.2
X153.5Y-186.2
X153.5Y-201.2
X156.75Y-119.2
X156.75Y-124.2
X156.75Y-129.2
X156.75Y-144.2
X161.0Y-176.2
X161.0Y-181.2
X161.0Y-186.2
X161.0Y-201.2
X164.25Y-119.2
X164.25Y-124.2
X164.25Y-129.2
X164.25Y-144.2
X169.75Y-176.2
X169.75Y-181.2
X169.75Y-186.2
X169.75Y-201.2
X170.75Y-119.2
X170.75Y-124.2
X170.75Y-129.2
X170.75Y-144.2
X177.25Y-176.2
X177.25Y-181.2
X177.25Y-186.2
X177.25Y-201.2
X178.25Y-119.2
X178.25Y-124.2
X178.25Y-129.2
X178.25Y-144.2
X184.5Y-119.4
X184.5Y-124.4
X184.5Y-129.4
X184.5Y-144.4
X186.0Y-176.0
X186.0Y-181.0
X186.0Y-186.0
X186.0Y-201.0
X192.0Y-119.4
X192.0Y-124.4
X192.0Y-129.4
X192.0Y-144.4
X193.5Y-176.0
X193.5Y-181.0
X193.5Y-186.0
X193.5Y-201.0
X195.8Y-151.25
X195.8Y-158.75
X198.75Y-119.2
X198.75Y-124.2
X198.75Y-129.2
X198.75Y-144.2
X202.25Y-176.2
X202.25Y-181.2
X202.25Y-186.2
X202.25Y-201.2
X206.25Y-119.2
X206.25Y-124.2
X206.25Y-129.2
X206.25Y-144.2
X209.75Y-176.2
X209.75Y-181.2
X209.75Y-186.2
X209.75Y-201.2
X210.8Y-151.25
X210.8Y-158.75
X212.75Y-119.2
X212.75Y-124.2
X212.75Y-129.2
X212.75Y-144.2
X215.8Y-151.25
X215.8Y-158.75
X218.25Y-176.2
X218.25Y-181.2
X218.25Y-186.2
X218.25Y-201.2
X220.25Y-119.2
X220.25Y-124.2
X220.25Y-129.2
X220.25Y-144.2
X220.8Y-151.25
X220.8Y-158.75
X225.75Y-176.2
X225.75Y-181.2
X225.75Y-186.2
X225.75Y-201.2
X226.75Y-119.2
X226.75Y-124.2
X226.75Y-129.2
X226.75Y-144.2
X234.25Y-119.2
X234.25Y-124.2
X234.25Y-129.2
X234.25Y-144.2
X234.25Y-176.2
X234.25Y-181.2
X234.25Y-186.2
X234.25Y-201.2
X240.75Y-119.2
X240.75Y-124.2
X240.75Y-129.2
X240.75Y-144.2
X241.75Y-176.2
X241.75Y-181.2
X241.75Y-186.2
X241.75Y-201.2
X248.25Y-119.2
X248.25Y-124.2
X248.25Y-129.2
X248.25Y-144.2
X250.5Y-176.0
X250.5Y-181.0
X250.5Y-186.0
X250.5Y-201.0
X254.5Y-119.5
X254.5Y-124.5
X254.5Y-129.5
X254.5Y-144.5
X258.0Y-176.0
X258.0Y-181.0
X258.0Y-186.0
X258.0Y-201.0
X262.0Y-119.5
X262.0Y-124.5
X262.0Y-129.5
X262.0Y-144.5
X266.25Y-176.2
X266.25Y-181.2
X266.25Y-186.2
X266.25Y-201.2
X273.75Y-176.2
X273.75Y-181.2
X273.75Y-186.2
X273.75Y-201.2
X280.8Y-153.75
X280.8Y-161.25
X281.0Y-121.25
X281.0Y-128.75
X281.0Y-186.25
X281.0Y-193.75
X295.8Y-153.75
X295.8Y-161.25
X296.0Y-121.25
X296.0Y-128.75
X296.0Y-186.25
X296.0Y-193.75
X300.8Y-153.75
X300.8Y-161.25
X301.0Y-121.25
X301.0Y-128.75
X301.0Y-186.25
X301.0Y-193.75
X305.8Y-153.75
X305.8Y-161.25
X306.0Y-121.25
X306.0Y-128.75
X306.0Y-186.25
X306.0Y-193.75
T8
X110.25Y-137.75
X110.25Y-142.83
X113.44Y-63.44
X316.44Y-173.44
X316.56Y-206.56
X317.0Y-108.44
X317.0Y-141.56
X318.44Y-65.0
T9
X317.92Y-80.0
X317.92Y-85.08
X320.46Y-82.54
X323.0Y-80.0
X323.0Y-85.08
T10
X108.7Y-72.3
X108.7Y-88.8
X111.7Y-77.3
X111.7Y-83.3
X137.2Y-77.3
X137.2Y-83.8
X139.2Y-72.3
X139.2Y-88.8
X142.2Y-80.3
X155.0Y-111.975
X165.825Y-88.475
X166.0Y-100.975
X176.825Y-77.475
X185.0Y-112.475
X196.0Y-101.475
X202.225Y-88.475
X213.225Y-77.475
X220.775Y-112.975
X231.775Y-101.975
X237.5Y-88.475
X248.5Y-77.475
X257.0Y-113.475
X268.0Y-102.475
X273.5Y-88.5
X284.5Y-77.5
T11
X135.04Y-64.595
X139.0Y-64.595
X142.96Y-64.595
T12
X110.0Y-60.0
X110.0Y-66.88
X116.88Y-60.0
X116.88Y-66.88
X313.0Y-170.0
X313.0Y-176.88
X313.12Y-203.12
X313.12Y-210.0
X313.56Y-105.0
X313.56Y-111.88
X313.56Y-138.12
X313.56Y-145.0
X315.0Y-61.56
X315.0Y-68.44
X319.88Y-170.0
X319.88Y-176.88
X320.0Y-203.12
X320.0Y-210.0
X320.44Y-105.0
X320.44Y-111.88
X320.44Y-138.12
X320.44Y-145.0
X321.88Y-61.56
X321.88Y-68.44
T13
X110.0Y-211.0
X111.0Y-95.0
X301.0Y-210.0
X319.0Y-94.0
T0
M30
