G04 #@! TF.GenerationSoftware,KiCad,Pcbnew,7.0.1*
G04 #@! TF.CreationDate,2023-05-12T07:13:36+02:00*
G04 #@! TF.ProjectId,K_Aries,4b5f4172-6965-4732-9e6b-696361645f70,rev?*
G04 #@! TF.SameCoordinates,Original*
G04 #@! TF.FileFunction,Paste,Top*
G04 #@! TF.FilePolarity,Positive*
%FSLAX46Y46*%
G04 Gerber Fmt 4.6, Leading zero omitted, Abs format (unit mm)*
G04 Created by KiCad (PCBNEW 7.0.1) date 2023-05-12 07:13:36*
%MOMM*%
%LPD*%
G01*
G04 APERTURE LIST*
G04 Aperture macros list*
%AMRoundRect*
0 Rectangle with rounded corners*
0 $1 Rounding radius*
0 $2 $3 $4 $5 $6 $7 $8 $9 X,Y pos of 4 corners*
0 Add a 4 corners polygon primitive as box body*
4,1,4,$2,$3,$4,$5,$6,$7,$8,$9,$2,$3,0*
0 Add four circle primitives for the rounded corners*
1,1,$1+$1,$2,$3*
1,1,$1+$1,$4,$5*
1,1,$1+$1,$6,$7*
1,1,$1+$1,$8,$9*
0 Add four rect primitives between the rounded corners*
20,1,$1+$1,$2,$3,$4,$5,0*
20,1,$1+$1,$4,$5,$6,$7,0*
20,1,$1+$1,$6,$7,$8,$9,0*
20,1,$1+$1,$8,$9,$2,$3,0*%
G04 Aperture macros list end*
%ADD10RoundRect,0.250000X-0.475000X0.337500X-0.475000X-0.337500X0.475000X-0.337500X0.475000X0.337500X0*%
%ADD11RoundRect,0.250001X-0.624999X0.462499X-0.624999X-0.462499X0.624999X-0.462499X0.624999X0.462499X0*%
%ADD12RoundRect,0.250000X-0.450000X0.350000X-0.450000X-0.350000X0.450000X-0.350000X0.450000X0.350000X0*%
%ADD13RoundRect,0.250001X0.624999X-0.462499X0.624999X0.462499X-0.624999X0.462499X-0.624999X-0.462499X0*%
%ADD14RoundRect,0.250000X0.475000X-0.337500X0.475000X0.337500X-0.475000X0.337500X-0.475000X-0.337500X0*%
%ADD15RoundRect,0.250000X-0.250000X0.250000X-0.250000X-0.250000X0.250000X-0.250000X0.250000X0.250000X0*%
%ADD16RoundRect,0.250000X0.350000X0.450000X-0.350000X0.450000X-0.350000X-0.450000X0.350000X-0.450000X0*%
%ADD17R,1.700000X1.700000*%
%ADD18RoundRect,0.250001X0.462499X0.624999X-0.462499X0.624999X-0.462499X-0.624999X0.462499X-0.624999X0*%
G04 APERTURE END LIST*
D10*
X193500000Y-204962500D03*
X193500000Y-207037500D03*
X177000000Y-204962500D03*
X177000000Y-207037500D03*
D11*
X291500000Y-99512500D03*
X291500000Y-102487500D03*
D12*
X232000000Y-148000000D03*
X232000000Y-150000000D03*
D13*
X157500000Y-207987500D03*
X157500000Y-205012500D03*
D10*
X250500000Y-205000000D03*
X250500000Y-207075000D03*
D14*
X282000000Y-182037500D03*
X282000000Y-179962500D03*
X281000000Y-149537500D03*
X281000000Y-147462500D03*
D13*
X246000000Y-150987500D03*
X246000000Y-148012500D03*
X189500000Y-150987500D03*
X189500000Y-148012500D03*
D10*
X234500000Y-204962500D03*
X234500000Y-207037500D03*
X160000000Y-204962500D03*
X160000000Y-207037500D03*
X282000000Y-133000000D03*
X282000000Y-135075000D03*
D12*
X220500000Y-205012500D03*
X220500000Y-207012500D03*
X188500000Y-205000000D03*
X188500000Y-207000000D03*
X257000000Y-148500000D03*
X257000000Y-150500000D03*
D10*
X237000000Y-147962500D03*
X237000000Y-150037500D03*
D13*
X184250000Y-150987500D03*
X184250000Y-148012500D03*
D10*
X261980000Y-148462500D03*
X261980000Y-150537500D03*
D14*
X292500000Y-86500000D03*
X292500000Y-84425000D03*
D13*
X234500000Y-150987500D03*
X234500000Y-148012500D03*
D10*
X281000000Y-197925000D03*
X281000000Y-200000000D03*
X202600000Y-205000000D03*
X202600000Y-207075000D03*
D13*
X191000000Y-207987500D03*
X191000000Y-205012500D03*
D10*
X186500000Y-204962500D03*
X186500000Y-207037500D03*
D13*
X280500000Y-168487500D03*
X280500000Y-165512500D03*
D10*
X266500000Y-204962500D03*
X266500000Y-207037500D03*
D15*
X108300000Y-154450000D03*
X108300000Y-156950000D03*
D10*
X248500000Y-147962500D03*
X248500000Y-150037500D03*
X161500000Y-147962500D03*
X161500000Y-150037500D03*
X179750000Y-147962500D03*
X179750000Y-150037500D03*
D13*
X173500000Y-150987500D03*
X173500000Y-148012500D03*
D12*
X181750000Y-148000000D03*
X181750000Y-150000000D03*
X268500000Y-205012500D03*
X268500000Y-207012500D03*
X156500000Y-148000000D03*
X156500000Y-150000000D03*
D13*
X278500000Y-200987500D03*
X278500000Y-198012500D03*
D10*
X273500000Y-204962500D03*
X273500000Y-207037500D03*
D16*
X280000000Y-182000000D03*
X278000000Y-182000000D03*
D10*
X230000000Y-147962500D03*
X230000000Y-150037500D03*
D12*
X121300000Y-154700000D03*
X121300000Y-156700000D03*
D10*
X255000000Y-148462500D03*
X255000000Y-150537500D03*
X169000000Y-147962500D03*
X169000000Y-150037500D03*
D14*
X187000000Y-150037500D03*
X187000000Y-147962500D03*
D10*
X154500000Y-147962500D03*
X154500000Y-150037500D03*
X294000000Y-99462500D03*
X294000000Y-101537500D03*
D12*
X236500000Y-205037500D03*
X236500000Y-207037500D03*
D13*
X159000000Y-150987500D03*
X159000000Y-148012500D03*
X174500000Y-207987500D03*
X174500000Y-205012500D03*
D12*
X252500000Y-205000000D03*
X252500000Y-207000000D03*
D10*
X209400000Y-205000000D03*
X209400000Y-207075000D03*
X283000000Y-165500000D03*
X283000000Y-167575000D03*
D12*
X192000000Y-153500000D03*
X192000000Y-155500000D03*
D16*
X279000000Y-149500000D03*
X277000000Y-149500000D03*
D10*
X241500000Y-147962500D03*
X241500000Y-150037500D03*
D12*
X204600000Y-205037500D03*
X204600000Y-207037500D03*
D16*
X279500000Y-117000000D03*
X277500000Y-117000000D03*
D13*
X239000000Y-208025000D03*
X239000000Y-205050000D03*
D12*
X155000000Y-205000000D03*
X155000000Y-207000000D03*
D13*
X223000000Y-208000000D03*
X223000000Y-205025000D03*
X255000000Y-207987500D03*
X255000000Y-205012500D03*
D10*
X170000000Y-204962500D03*
X170000000Y-207037500D03*
D13*
X259500000Y-151487500D03*
X259500000Y-148512500D03*
D10*
X176000000Y-147962500D03*
X176000000Y-150037500D03*
D13*
X227000000Y-151000000D03*
X227000000Y-148025000D03*
D17*
X143900000Y-158830000D03*
X141360000Y-158830000D03*
X138820000Y-158830000D03*
X136280000Y-158830000D03*
X133740000Y-158830000D03*
X131200000Y-158830000D03*
X128660000Y-158830000D03*
X126120000Y-158830000D03*
X123580000Y-158830000D03*
X121040000Y-158830000D03*
X118500000Y-158830000D03*
X115960000Y-158830000D03*
X113420000Y-158830000D03*
X110880000Y-158830000D03*
X108340000Y-158830000D03*
X108340000Y-176610000D03*
X110880000Y-176610000D03*
X113420000Y-176610000D03*
X115960000Y-176610000D03*
X118500000Y-176610000D03*
X121040000Y-176610000D03*
X123580000Y-176610000D03*
X126120000Y-176610000D03*
X128660000Y-176610000D03*
X131200000Y-176610000D03*
X133740000Y-176610000D03*
X136280000Y-176610000D03*
X138820000Y-176610000D03*
X141360000Y-176610000D03*
X143900000Y-176610000D03*
D13*
X279500000Y-135987500D03*
X279500000Y-133012500D03*
D10*
X225500000Y-204962500D03*
X225500000Y-207037500D03*
X153000000Y-204925000D03*
X153000000Y-207000000D03*
D11*
X121400000Y-149425000D03*
X121400000Y-152400000D03*
D12*
X243500000Y-148000000D03*
X243500000Y-150000000D03*
D14*
X281500000Y-117075000D03*
X281500000Y-115000000D03*
D13*
X207100000Y-208025000D03*
X207100000Y-205050000D03*
D12*
X172000000Y-205000000D03*
X172000000Y-207000000D03*
D13*
X271000000Y-208000000D03*
X271000000Y-205025000D03*
D12*
X224500000Y-148000000D03*
X224500000Y-150000000D03*
X171000000Y-148000000D03*
X171000000Y-150000000D03*
D18*
X189487500Y-154000000D03*
X186512500Y-154000000D03*
D10*
X241500000Y-204962500D03*
X241500000Y-207037500D03*
D12*
X289000000Y-99500000D03*
X289000000Y-101500000D03*
X192000000Y-148000000D03*
X192000000Y-150000000D03*
D10*
X218500000Y-204962500D03*
X218500000Y-207037500D03*
X257520000Y-205000000D03*
X257520000Y-207075000D03*
M02*
